<svg width="37" height="37" viewBox="0 0 37 37" fill="none" xmlns="http://www.w3.org/2000/svg">
<path d="M8.87227 31.2696L6.16665 12.3333H30.8333L28.1277 31.2696C28.0227 32.0044 27.6561 32.6766 27.0954 33.1628C26.5347 33.649 25.8174 33.9167 25.0752 33.9167H11.9248C11.1826 33.9167 10.4653 33.649 9.90454 33.1628C9.34381 32.6766 8.97729 32.0044 8.87227 31.2696ZM32.375 6.16668H24.6666V4.62501C24.6666 4.21613 24.5042 3.82401 24.2151 3.53489C23.926 3.24577 23.5339 3.08334 23.125 3.08334H13.875C13.4661 3.08334 13.074 3.24577 12.7849 3.53489C12.4957 3.82401 12.3333 4.21613 12.3333 4.62501V6.16668H4.62498C4.2161 6.16668 3.82398 6.3291 3.53486 6.61822C3.24574 6.90734 3.08331 7.29947 3.08331 7.70834C3.08331 8.11722 3.24574 8.50935 3.53486 8.79847C3.82398 9.08758 4.2161 9.25001 4.62498 9.25001H32.375C32.7839 9.25001 33.176 9.08758 33.4651 8.79847C33.7542 8.50935 33.9166 8.11722 33.9166 7.70834C33.9166 7.29947 33.7542 6.90734 33.4651 6.61822C33.176 6.3291 32.7839 6.16668 32.375 6.16668Z" fill="white"/>
</svg>
