<svg width="26" height="26" viewBox="0 0 26 26" fill="none" xmlns="http://www.w3.org/2000/svg">
<path d="M13 23.8333C7.01674 23.8333 2.16666 18.9832 2.16666 13C2.16666 7.01674 7.01674 2.16666 13 2.16666C18.9832 2.16666 23.8333 7.01674 23.8333 13C23.8333 18.9832 18.9832 23.8333 13 23.8333ZM8.57999 10.0035V10.114C8.57999 10.2576 8.63706 10.3954 8.73864 10.497C8.84022 10.5986 8.978 10.6557 9.12166 10.6557H10.2017C10.2727 10.6557 10.343 10.6417 10.4086 10.6145C10.4742 10.5873 10.5338 10.5475 10.584 10.4973C10.6342 10.4471 10.674 10.3875 10.7012 10.3219C10.7283 10.2564 10.7423 10.1861 10.7423 10.1151C10.7423 8.71757 11.8235 7.97116 13.2773 7.97116C14.6943 7.97116 15.626 8.71757 15.626 9.78032C15.626 10.7857 15.1038 11.2526 13.7995 11.8495L13.4268 12.0163C12.3272 12.5017 11.9167 13.2275 11.9167 14.4961V14.625C11.9167 14.7686 11.9737 14.9064 12.0753 15.008C12.1769 15.1096 12.3147 15.1667 12.4583 15.1667H13.5384C13.6094 15.1667 13.6797 15.1527 13.7453 15.1255C13.8109 15.0983 13.8705 15.0585 13.9207 15.0083C13.9709 14.9581 14.0107 14.8985 14.0378 14.8329C14.065 14.7674 14.079 14.6971 14.079 14.6261C14.079 14.0671 14.2285 13.8428 14.6748 13.6381L15.0486 13.4702C16.614 12.7617 17.7883 11.83 17.7883 9.79766V9.68607C17.7883 7.54324 15.925 5.95832 13.2773 5.95832C10.5928 5.95832 8.57999 7.50532 8.57999 10.0035ZM11.375 18.4069C11.375 19.3462 12.0889 20.0417 12.9902 20.0417C13.9111 20.0417 14.625 19.3462 14.625 18.4069C14.625 17.4677 13.9111 16.7917 12.9902 16.7917C12.0889 16.7917 11.375 17.4677 11.375 18.4069Z" fill="white"/>
</svg>
