<svg width="22" height="27" viewBox="0 0 22 27" fill="none" xmlns="http://www.w3.org/2000/svg">
<mask id="mask0_280_220" style="mask-type:luminance" maskUnits="userSpaceOnUse" x="0" y="1" width="22" height="25">
<path d="M21.9623 1.23837H0.131531V25.7616H21.9623V1.23837Z" fill="white"/>
</mask>
<g mask="url(#mask0_280_220)">
<path d="M10.5541 15.9261C8.65532 17.8657 6.79854 19.7443 4.96032 21.6464C3.8954 22.7485 2.86861 23.8981 1.80618 25.0029C1.52321 25.3047 1.19805 25.5501 0.844098 25.7287C0.66956 25.8123 0.292656 25.7287 0.206703 25.5756C0.0929747 25.3722 0.1266 25.0115 0.188288 24.7462C0.233164 24.5527 0.41589 24.3925 0.553737 24.2372C3.17523 21.2921 5.79791 18.3488 8.42175 15.4074C8.71615 15.0775 9.01902 14.7577 9.35728 14.3913C8.21065 12.9413 7.06224 11.5421 5.96588 10.091C4.21611 7.77385 2.50145 5.42226 0.772293 3.08506C0.709436 3.00012 0.655365 2.90715 0.591923 2.82221C0.289332 2.41407 0.0760019 1.97416 0.420547 1.47906C0.678554 1.10837 1.29534 1.16374 1.72482 1.66803C2.79441 2.92357 3.83634 4.20953 4.86953 5.50537C6.75613 7.87014 8.62801 10.2503 10.5079 12.6221C10.5883 12.7084 10.6739 12.7882 10.764 12.861C12.2176 11.2758 13.6551 9.69568 15.1046 8.12912C16.7857 6.31328 18.4727 4.50458 20.1655 2.70301C20.8005 2.02583 21.3097 1.90378 21.6994 2.29888C22.1032 2.7082 22.0657 3.39204 21.4216 4.12523C19.6804 6.10779 17.897 8.04219 16.1153 9.97876C14.758 11.4545 13.3791 12.9048 11.9346 14.4463C13.1084 15.8316 14.2311 17.2124 15.4081 18.5293C16.5387 19.7942 17.7323 20.9857 18.8851 22.2246C19.3358 22.6907 19.7579 23.1918 20.1483 23.7246C20.463 24.1714 20.5096 24.7261 20.1226 25.167C19.7411 25.6016 19.2996 25.4481 18.9317 25.1189C18.2278 24.5222 17.5533 23.8819 16.9108 23.2007C14.9442 21.003 13.0124 18.7652 11.0679 16.5419C10.9141 16.3663 10.7672 16.1821 10.5541 15.9261Z" fill="#4973DD"/>
</g>
</svg>
