<svg width="18" height="22" viewBox="0 0 18 22" fill="none" xmlns="http://www.w3.org/2000/svg">
<path d="M16.0984 5.5H14.2636V6.41523C14.2636 7.425 13.4429 8.25 12.4289 8.25C11.4191 8.25 10.5941 7.4293 10.5941 6.41523V5.5H6.92888V6.41523C6.92888 7.425 6.10818 8.25 5.09412 8.25C4.08435 8.25 3.25935 7.4293 3.25935 6.41523V5.5H1.43318C1.43318 14.6652 0.517944 22 0.517944 22H17.0179C17.0136 22 16.0984 14.6652 16.0984 5.5ZM5.09841 7.33477C5.60544 7.33477 6.01365 6.92656 6.01365 6.41953V4.58477C6.01365 3.06367 7.24255 1.83477 8.76365 1.83477C10.2847 1.83477 11.5136 3.06367 11.5136 4.58477V6.41953C11.5136 6.92656 11.9219 7.33477 12.4289 7.33477C12.9359 7.33477 13.3441 6.92656 13.3441 6.41953V4.58477C13.3484 2.05391 11.2945 0 8.76365 0C6.23279 0 4.17888 2.05391 4.17888 4.58477V6.41953C4.18318 6.92227 4.59138 7.33477 5.09841 7.33477Z" fill="#4973DD"/>
</svg>
