<svg width="32" height="32" viewBox="0 0 32 32" fill="none" xmlns="http://www.w3.org/2000/svg">
<circle cx="16" cy="16" r="16" fill="#BECCEF"/>
<g clip-path="url(#clip0_280_199)">
<mask id="mask0_280_199" style="mask-type:luminance" maskUnits="userSpaceOnUse" x="8" y="8" width="16" height="16">
<path d="M23.9726 8.18462H8.0957V23.8154H23.9726V8.18462Z" fill="white"/>
</mask>
<g mask="url(#mask0_280_199)">
<path d="M15.6757 17.5463C14.2948 18.7826 12.9445 19.98 11.6076 21.1924C10.8331 21.8948 10.0863 22.6276 9.31365 23.3317C9.10785 23.5241 8.87137 23.6805 8.61395 23.7944C8.48701 23.8477 8.2129 23.7944 8.15039 23.6968C8.06768 23.5672 8.09213 23.3373 8.137 23.1682C8.16964 23.0448 8.30253 22.9427 8.40278 22.8437C10.3093 20.9666 12.2167 19.0905 14.125 17.2157C14.3391 17.0055 14.5593 16.8016 14.8054 16.5681C13.9714 15.6439 13.1362 14.7521 12.3389 13.8271C11.0663 12.3502 9.8193 10.8513 8.56173 9.36165C8.51601 9.30751 8.47669 9.24825 8.43055 9.19412C8.21048 8.93397 8.05534 8.65358 8.30591 8.33801C8.49356 8.10174 8.94213 8.13703 9.25447 8.45845C10.0324 9.25872 10.7901 10.0784 11.5415 10.9043C12.9136 12.4116 14.275 13.9287 15.6422 15.4404C15.7007 15.4954 15.7629 15.5463 15.8284 15.5927C16.8856 14.5823 17.931 13.5752 18.9852 12.5767C20.2078 11.4193 21.4348 10.2664 22.6659 9.11814C23.1277 8.68652 23.498 8.60872 23.7815 8.86055C24.0751 9.12144 24.0478 9.55731 23.5794 10.0246C22.313 11.2883 21.0161 12.5213 19.7203 13.7556C18.7332 14.6962 17.7303 15.6206 16.6797 16.6031C17.5334 17.4861 18.3499 18.3662 19.206 19.2056C20.0282 20.0118 20.8963 20.7712 21.7347 21.5609C22.0625 21.858 22.3694 22.1774 22.6534 22.517C22.8823 22.8018 22.9161 23.1554 22.6346 23.4363C22.3572 23.7134 22.0361 23.6155 21.7686 23.4057C21.2567 23.0254 20.7661 22.6173 20.2988 22.183C18.8686 20.7823 17.4636 19.3559 16.0494 17.9388C15.9376 17.8269 15.8307 17.7095 15.6757 17.5463Z" fill="#4973DD"/>
</g>
</g>
<defs>
<clipPath id="clip0_280_199">
<rect width="16" height="16" fill="white" transform="translate(8 8)"/>
</clipPath>
</defs>
</svg>
