<svg width="25" height="25" viewBox="0 0 25 25" fill="none" xmlns="http://www.w3.org/2000/svg">
<g clip-path="url(#clip0_297_2)">
<path d="M25 23.6111V1.38889C25 1.02053 24.8537 0.667263 24.5932 0.406796C24.3327 0.146329 23.9795 0 23.6111 0L1.38889 0C1.02053 0 0.667263 0.146329 0.406796 0.406796C0.146329 0.667263 0 1.02053 0 1.38889L0 23.6111C0 23.9795 0.146329 24.3327 0.406796 24.5932C0.667263 24.8537 1.02053 25 1.38889 25H23.6111C23.9795 25 24.3327 24.8537 24.5932 24.5932C24.8537 24.3327 25 23.9795 25 23.6111ZM13.8889 4.16667C13.8889 4.53502 13.7426 4.88829 13.4821 5.14876C13.2216 5.40923 12.8684 5.55556 12.5 5.55556H4.16667C3.79831 5.55556 3.44504 5.40923 3.18457 5.14876C2.92411 4.88829 2.77778 4.53502 2.77778 4.16667C2.77778 3.79831 2.92411 3.44504 3.18457 3.18457C3.44504 2.92411 3.79831 2.77778 4.16667 2.77778H12.5C12.8684 2.77778 13.2216 2.92411 13.4821 3.18457C13.7426 3.44504 13.8889 3.79831 13.8889 4.16667ZM13.8889 9.72222C13.8889 10.0906 13.7426 10.4438 13.4821 10.7043C13.2216 10.9648 12.8684 11.1111 12.5 11.1111H4.16667C3.79831 11.1111 3.44504 10.9648 3.18457 10.7043C2.92411 10.4438 2.77778 10.0906 2.77778 9.72222C2.77778 9.35387 2.92411 9.0006 3.18457 8.74013C3.44504 8.47966 3.79831 8.33333 4.16667 8.33333H12.5C12.8684 8.33333 13.2216 8.47966 13.4821 8.74013C13.7426 9.0006 13.8889 9.35387 13.8889 9.72222ZM13.8889 15.2778C13.8889 15.6461 13.7426 15.9994 13.4821 16.2599C13.2216 16.5203 12.8684 16.6667 12.5 16.6667H4.16667C3.79831 16.6667 3.44504 16.5203 3.18457 16.2599C2.92411 15.9994 2.77778 15.6461 2.77778 15.2778C2.77778 14.9094 2.92411 14.5562 3.18457 14.2957C3.44504 14.0352 3.79831 13.8889 4.16667 13.8889H12.5C12.8684 13.8889 13.2216 14.0352 13.4821 14.2957C13.7426 14.5562 13.8889 14.9094 13.8889 15.2778ZM22.1528 16.2778C22.094 16.3935 22.0047 16.4908 21.8945 16.5594C21.7843 16.6279 21.6575 16.665 21.5278 16.6667H20.8333V17.125C20.8341 17.7946 20.7027 18.4577 20.4468 19.0765C20.1909 19.6952 19.8155 20.2574 19.342 20.7309C18.8686 21.2044 18.3064 21.5798 17.6876 21.8357C17.0688 22.0916 16.4057 22.223 15.7361 22.2222H4.16667C3.79831 22.2222 3.44504 22.0759 3.18457 21.8154C2.92411 21.555 2.77778 21.2017 2.77778 20.8333C2.77778 20.465 2.92411 20.1117 3.18457 19.8512C3.44504 19.5908 3.79831 19.4444 4.16667 19.4444H15.7361C16.3509 19.4433 16.9402 19.1986 17.375 18.7639C17.8097 18.3291 18.0545 17.7398 18.0556 17.125V16.6667H17.3611C17.2321 16.6667 17.1057 16.6308 16.996 16.563C16.8863 16.4951 16.7977 16.3981 16.74 16.2828C16.6823 16.1674 16.6579 16.0383 16.6695 15.9099C16.6811 15.7814 16.7282 15.6587 16.8056 15.5556L18.8889 12.7778C18.9536 12.6915 19.0375 12.6215 19.1339 12.5733C19.2303 12.5251 19.3366 12.5 19.4444 12.5C19.5523 12.5 19.6586 12.5251 19.755 12.5733C19.8514 12.6215 19.9353 12.6915 20 12.7778L22.0833 15.5556C22.1587 15.6586 22.2049 15.7801 22.2171 15.9071C22.2293 16.0342 22.2071 16.1622 22.1528 16.2778Z" fill="#4973DD"/>
</g>
<defs>
<clipPath id="clip0_297_2">
<rect width="25" height="25" fill="white"/>
</clipPath>
</defs>
</svg>
