<svg width="32" height="32" viewBox="0 0 32 32" fill="none" xmlns="http://www.w3.org/2000/svg">
<path d="M31.8847 25.9146C31.7397 24.4608 31.4594 22.9615 31.0086 21.4396C28.8402 14.125 22.2015 8.99491 14.6652 8.67438V3.3348C14.6652 2.14704 13.2292 1.55223 12.3893 2.39208L0.390537 14.3909C-0.130098 14.9115 -0.130098 15.7557 0.390537 16.2763L12.3893 28.2751C13.2292 29.1149 14.6652 28.5201 14.6652 27.3324V20.4764C17.6782 20.175 21.1566 20.9213 24.4977 23.4981C26.3457 24.9235 28.0327 26.8519 29.518 29.3475C30.2108 30.5115 31.9968 30.0202 31.9968 28.6656C31.9971 28.6057 31.9971 28.6057 31.9983 28.4953C32.0071 27.6653 31.9833 26.9037 31.8847 25.9146ZM26.126 21.3867C21.967 18.179 17.5797 17.3664 13.8033 17.8948C13.4377 17.9459 13.1682 17.9996 13.006 18.0405C12.4138 18.1899 11.9988 18.7225 11.9988 19.3332V24.1138L3.21862 15.3336L11.9988 6.55347V10.0008C11.9988 10.7551 12.624 11.3592 13.378 11.3332C13.4319 11.3314 13.4749 11.3304 13.5861 11.3285C20.3841 11.1816 26.5172 15.67 28.4522 22.1972C28.6292 22.7946 28.7767 23.3888 28.8974 23.9775C28.0202 22.9961 27.095 22.134 26.126 21.3867Z" fill="white"/>
</svg>
