<svg width="41" height="52" viewBox="0 0 41 52" fill="none" xmlns="http://www.w3.org/2000/svg">
<path d="M35.24 23.436C35.096 22.956 34.904 22.44 34.664 21.888C34.496 21.552 34.244 21.066 33.908 20.43C33.572 19.794 33.332 19.308 33.188 18.972C32.948 18.444 32.768 17.952 32.648 17.496C32.36 16.536 32.288 15.384 32.432 14.04C32.528 12.792 32.768 11.652 33.152 10.62C33.248 10.332 33.524 9.91199 33.98 9.35999C34.388 8.83199 34.652 8.43599 34.772 8.17199C34.988 7.73999 35.024 7.33199 34.88 6.94799C34.688 6.41999 34.22 5.99999 33.476 5.68799C33.02 5.49599 32.324 5.30399 31.388 5.11199L30.632 4.93199L28.94 4.53599C27.668 4.22399 26.708 3.97199 26.06 3.77999C25.028 3.46799 24.116 3.10799 23.324 2.69999C23.228 2.62799 23.012 2.47199 22.676 2.23199C22.124 1.79999 21.704 1.51199 21.416 1.36799C20.936 1.10399 20.564 1.04399 20.3 1.18799C19.844 1.45199 19.592 2.29199 19.544 3.70799C19.496 4.54799 19.52 5.44799 19.616 6.40799C19.808 8.39999 20.24 9.97199 20.912 11.124C18.536 11.82 16.46 13.092 14.684 14.94C12.908 16.788 11.684 18.912 11.012 21.312C10.628 22.656 10.424 23.916 10.4 25.092C10.4 26.628 10.736 27.84 11.408 28.728C11.864 29.352 12.548 29.976 13.46 30.6C13.988 30.96 14.816 31.44 15.944 32.04L16.448 32.292C18.536 33.444 20.444 34.188 22.172 34.524C24.188 34.932 26.24 34.86 28.328 34.308C29.84 33.876 31.208 33.108 32.432 32.004C33.656 30.9 34.52 29.616 35.024 28.152C35.576 26.568 35.648 24.996 35.24 23.436ZM17.708 25.344C17.252 25.344 16.928 25.056 16.736 24.48C16.568 23.952 16.544 23.31 16.664 22.554C16.784 21.798 17.012 21.168 17.348 20.664C17.756 20.112 18.236 19.848 18.788 19.872C19.412 19.92 19.82 20.232 20.012 20.808C20.204 21.312 20.198 21.93 19.994 22.662C19.79 23.394 19.472 24.024 19.04 24.552C18.608 25.08 18.164 25.344 17.708 25.344ZM30.668 17.1C30.476 17.604 30.056 18.132 29.408 18.684C29.024 18.996 28.448 19.416 27.68 19.944L27.392 20.16C26.744 20.616 26.174 20.874 25.682 20.934C25.19 20.994 24.572 20.892 23.828 20.628C23.132 20.388 22.112 19.956 20.768 19.332L19.76 18.9L18.932 18.54C18.188 18.252 17.648 18.024 17.312 17.856C16.736 17.568 16.328 17.268 16.088 16.956C15.584 16.236 15.644 15.552 16.268 14.904C16.652 14.52 17.348 14.064 18.356 13.536L18.824 13.32C19.736 12.816 20.468 12.492 21.02 12.348C21.764 12.18 22.568 12.204 23.432 12.42C25.136 12.876 26.672 13.428 28.04 14.076C30.176 15.108 31.052 16.116 30.668 17.1Z" fill="white"/>
<path d="M5.47949 46V32.8164H10.2959C11.6553 32.8164 12.7158 33.1152 13.4775 33.7129C14.2451 34.3047 14.6289 35.1279 14.6289 36.1826C14.6289 36.8682 14.4648 37.4717 14.1367 37.9932C13.8086 38.5088 13.3691 38.8926 12.8184 39.1445C13.5859 39.3555 14.1865 39.7363 14.6201 40.2871C15.0537 40.8379 15.2705 41.5146 15.2705 42.3174C15.2705 43.0557 15.0889 43.7031 14.7256 44.2598C14.3623 44.8105 13.8496 45.2383 13.1875 45.543C12.5312 45.8477 11.7578 46 10.8672 46H5.47949ZM7.7998 38.4326H10.1729C10.8408 38.4326 11.3682 38.2715 11.7549 37.9492C12.1416 37.6211 12.335 37.1787 12.335 36.6221C12.335 36.0771 12.1357 35.6465 11.7373 35.3301C11.3447 35.0137 10.8057 34.8555 10.1201 34.8555H7.7998V38.4326ZM7.7998 43.9609H10.3047C10.832 43.9609 11.2891 43.8818 11.6758 43.7236C12.0625 43.5596 12.3613 43.334 12.5723 43.0469C12.7891 42.7539 12.8975 42.4111 12.8975 42.0186C12.8975 41.6377 12.7979 41.3096 12.5986 41.0342C12.3994 40.7529 12.1182 40.5391 11.7549 40.3926C11.3916 40.2402 10.958 40.1641 10.4541 40.1641H7.7998V43.9609ZM24.6572 46H22.7764L22.6533 44.9189C22.3311 45.3174 21.9297 45.6279 21.4492 45.8506C20.9688 46.0674 20.4355 46.1758 19.8496 46.1758C19.2285 46.1758 18.6748 46.0557 18.1885 45.8154C17.7021 45.5693 17.3184 45.2354 17.0371 44.8135C16.7617 44.3916 16.624 43.9111 16.624 43.3721C16.624 42.8037 16.7734 42.3057 17.0723 41.8779C17.377 41.4443 17.79 41.1045 18.3115 40.8584C18.8389 40.6123 19.4395 40.4893 20.1133 40.4893C20.5234 40.4893 20.9336 40.5361 21.3438 40.6299C21.7598 40.7236 22.1436 40.8555 22.4951 41.0254V40.7441C22.4951 40.3574 22.3896 40.0234 22.1787 39.7422C21.9678 39.4609 21.6836 39.2441 21.3262 39.0918C20.9688 38.9336 20.5674 38.8545 20.1221 38.8545C19.7178 38.8545 19.3135 38.9248 18.9092 39.0654C18.5049 39.2002 18.127 39.4023 17.7754 39.6719L17.1602 37.9756C17.7227 37.665 18.2969 37.4307 18.8828 37.2725C19.4746 37.1143 20.0518 37.0352 20.6143 37.0352C21.4404 37.0352 22.1553 37.1992 22.7588 37.5273C23.3623 37.8496 23.8281 38.3125 24.1562 38.916C24.4902 39.5137 24.6572 40.2197 24.6572 41.0342V46ZM20.2979 44.4355C20.6787 44.4355 21.0303 44.3564 21.3525 44.1982C21.6807 44.04 21.9473 43.8203 22.1523 43.5391C22.3633 43.252 22.4746 42.9238 22.4863 42.5547V42.458C22.2109 42.2588 21.9004 42.1064 21.5547 42.001C21.209 41.8896 20.8604 41.834 20.5088 41.834C19.9697 41.834 19.5273 41.957 19.1816 42.2031C18.8359 42.4434 18.6631 42.7598 18.6631 43.1523C18.6631 43.3926 18.7334 43.6123 18.874 43.8115C19.0146 44.0049 19.208 44.1572 19.4541 44.2686C19.7061 44.3799 19.9873 44.4355 20.2979 44.4355ZM30.4668 46.0703C29.6523 46.0703 28.9258 45.874 28.2871 45.4814C27.6484 45.0889 27.1445 44.5527 26.7754 43.873C26.4062 43.1875 26.2217 42.4141 26.2217 41.5527C26.2217 40.6855 26.4062 39.9121 26.7754 39.2324C27.1445 38.5527 27.6484 38.0166 28.2871 37.624C28.9258 37.2314 29.6523 37.0352 30.4668 37.0352C31.1055 37.0352 31.6943 37.1582 32.2334 37.4043C32.7725 37.6504 33.2295 37.9932 33.6045 38.4326L33.71 37.2109H35.6084V45.7627C35.6084 46.7354 35.4004 47.582 34.9844 48.3027C34.5742 49.0234 33.9941 49.5801 33.2441 49.9727C32.4941 50.3711 31.6064 50.5703 30.5811 50.5703C29.1572 50.5703 27.8828 50.1162 26.7578 49.208L27.6455 47.4414C28.4307 48.2324 29.3623 48.6279 30.4404 48.6279C31.0498 48.6279 31.5771 48.5049 32.0225 48.2588C32.4736 48.0186 32.8223 47.6758 33.0684 47.2305C33.3203 46.791 33.4463 46.2754 33.4463 45.6836V44.8398C33.0713 45.2266 32.6289 45.5283 32.1191 45.7451C31.6094 45.9619 31.0586 46.0703 30.4668 46.0703ZM30.9414 44.1455C31.4043 44.1455 31.8232 44.043 32.1982 43.8379C32.5791 43.627 32.8809 43.3398 33.1035 42.9766C33.332 42.6133 33.4463 42.2002 33.4463 41.7373V41.3506C33.4463 40.8877 33.332 40.4775 33.1035 40.1201C32.8809 39.7627 32.5791 39.4814 32.1982 39.2764C31.8174 39.0654 31.3984 38.96 30.9414 38.96C30.4609 38.96 30.0303 39.0742 29.6494 39.3027C29.2686 39.5254 28.9668 39.833 28.7441 40.2256C28.5273 40.6182 28.4189 41.0605 28.4189 41.5527C28.4189 42.0449 28.5273 42.4873 28.7441 42.8799C28.9668 43.2725 29.2686 43.583 29.6494 43.8115C30.0303 44.0342 30.4609 44.1455 30.9414 44.1455Z" fill="white"/>
</svg>
