<svg width="41" height="45" viewBox="0 0 41 45" fill="none" xmlns="http://www.w3.org/2000/svg">
<path d="M35.0344 7H32.6992V8.16484C32.6992 9.45 31.6547 10.5 30.3641 10.5C29.0789 10.5 28.0289 9.45547 28.0289 8.16484V7H23.3641V8.16484C23.3641 9.45 22.3196 10.5 21.0289 10.5C19.7438 10.5 18.6938 9.45547 18.6938 8.16484V7H16.3696C16.3696 18.6648 15.2047 28 15.2047 28H36.2047C36.1992 28 35.0344 18.6648 35.0344 7ZM21.0344 9.33516C21.6797 9.33516 22.1992 8.81562 22.1992 8.17031V5.83516C22.1992 3.89922 23.7633 2.33516 25.6992 2.33516C27.6352 2.33516 29.1992 3.89922 29.1992 5.83516V8.17031C29.1992 8.81562 29.7188 9.33516 30.3641 9.33516C31.0094 9.33516 31.5289 8.81562 31.5289 8.17031V5.83516C31.5344 2.61406 28.9203 0 25.6992 0C22.4781 0 19.8641 2.61406 19.8641 5.83516V8.17031C19.8696 8.81016 20.3891 9.33516 21.0344 9.33516Z" fill="white"/>
<path d="M5.47949 39V25.8164H10.2959C11.6553 25.8164 12.7158 26.1152 13.4775 26.7129C14.2451 27.3047 14.6289 28.1279 14.6289 29.1826C14.6289 29.8682 14.4648 30.4717 14.1367 30.9932C13.8086 31.5088 13.3691 31.8926 12.8184 32.1445C13.5859 32.3555 14.1865 32.7363 14.6201 33.2871C15.0537 33.8379 15.2705 34.5146 15.2705 35.3174C15.2705 36.0557 15.0889 36.7031 14.7256 37.2598C14.3623 37.8105 13.8496 38.2383 13.1875 38.543C12.5312 38.8477 11.7578 39 10.8672 39H5.47949ZM7.7998 31.4326H10.1729C10.8408 31.4326 11.3682 31.2715 11.7549 30.9492C12.1416 30.6211 12.335 30.1787 12.335 29.6221C12.335 29.0771 12.1357 28.6465 11.7373 28.3301C11.3447 28.0137 10.8057 27.8555 10.1201 27.8555H7.7998V31.4326ZM7.7998 36.9609H10.3047C10.832 36.9609 11.2891 36.8818 11.6758 36.7236C12.0625 36.5596 12.3613 36.334 12.5723 36.0469C12.7891 35.7539 12.8975 35.4111 12.8975 35.0186C12.8975 34.6377 12.7979 34.3096 12.5986 34.0342C12.3994 33.7529 12.1182 33.5391 11.7549 33.3926C11.3916 33.2402 10.958 33.1641 10.4541 33.1641H7.7998V36.9609ZM24.6572 39H22.7764L22.6533 37.9189C22.3311 38.3174 21.9297 38.6279 21.4492 38.8506C20.9688 39.0674 20.4355 39.1758 19.8496 39.1758C19.2285 39.1758 18.6748 39.0557 18.1885 38.8154C17.7021 38.5693 17.3184 38.2354 17.0371 37.8135C16.7617 37.3916 16.624 36.9111 16.624 36.3721C16.624 35.8037 16.7734 35.3057 17.0723 34.8779C17.377 34.4443 17.79 34.1045 18.3115 33.8584C18.8389 33.6123 19.4395 33.4893 20.1133 33.4893C20.5234 33.4893 20.9336 33.5361 21.3438 33.6299C21.7598 33.7236 22.1436 33.8555 22.4951 34.0254V33.7441C22.4951 33.3574 22.3896 33.0234 22.1787 32.7422C21.9678 32.4609 21.6836 32.2441 21.3262 32.0918C20.9688 31.9336 20.5674 31.8545 20.1221 31.8545C19.7178 31.8545 19.3135 31.9248 18.9092 32.0654C18.5049 32.2002 18.127 32.4023 17.7754 32.6719L17.1602 30.9756C17.7227 30.665 18.2969 30.4307 18.8828 30.2725C19.4746 30.1143 20.0518 30.0352 20.6143 30.0352C21.4404 30.0352 22.1553 30.1992 22.7588 30.5273C23.3623 30.8496 23.8281 31.3125 24.1562 31.916C24.4902 32.5137 24.6572 33.2197 24.6572 34.0342V39ZM20.2979 37.4355C20.6787 37.4355 21.0303 37.3564 21.3525 37.1982C21.6807 37.04 21.9473 36.8203 22.1523 36.5391C22.3633 36.252 22.4746 35.9238 22.4863 35.5547V35.458C22.2109 35.2588 21.9004 35.1064 21.5547 35.001C21.209 34.8896 20.8604 34.834 20.5088 34.834C19.9697 34.834 19.5273 34.957 19.1816 35.2031C18.8359 35.4434 18.6631 35.7598 18.6631 36.1523C18.6631 36.3926 18.7334 36.6123 18.874 36.8115C19.0146 37.0049 19.208 37.1572 19.4541 37.2686C19.7061 37.3799 19.9873 37.4355 20.2979 37.4355ZM30.4668 39.0703C29.6523 39.0703 28.9258 38.874 28.2871 38.4814C27.6484 38.0889 27.1445 37.5527 26.7754 36.873C26.4062 36.1875 26.2217 35.4141 26.2217 34.5527C26.2217 33.6855 26.4062 32.9121 26.7754 32.2324C27.1445 31.5527 27.6484 31.0166 28.2871 30.624C28.9258 30.2314 29.6523 30.0352 30.4668 30.0352C31.1055 30.0352 31.6943 30.1582 32.2334 30.4043C32.7725 30.6504 33.2295 30.9932 33.6045 31.4326L33.71 30.2109H35.6084V38.7627C35.6084 39.7354 35.4004 40.582 34.9844 41.3027C34.5742 42.0234 33.9941 42.5801 33.2441 42.9727C32.4941 43.3711 31.6064 43.5703 30.5811 43.5703C29.1572 43.5703 27.8828 43.1162 26.7578 42.208L27.6455 40.4414C28.4307 41.2324 29.3623 41.6279 30.4404 41.6279C31.0498 41.6279 31.5771 41.5049 32.0225 41.2588C32.4736 41.0186 32.8223 40.6758 33.0684 40.2305C33.3203 39.791 33.4463 39.2754 33.4463 38.6836V37.8398C33.0713 38.2266 32.6289 38.5283 32.1191 38.7451C31.6094 38.9619 31.0586 39.0703 30.4668 39.0703ZM30.9414 37.1455C31.4043 37.1455 31.8232 37.043 32.1982 36.8379C32.5791 36.627 32.8809 36.3398 33.1035 35.9766C33.332 35.6133 33.4463 35.2002 33.4463 34.7373V34.3506C33.4463 33.8877 33.332 33.4775 33.1035 33.1201C32.8809 32.7627 32.5791 32.4814 32.1982 32.2764C31.8174 32.0654 31.3984 31.96 30.9414 31.96C30.4609 31.96 30.0303 32.0742 29.6494 32.3027C29.2686 32.5254 28.9668 32.833 28.7441 33.2256C28.5273 33.6182 28.4189 34.0605 28.4189 34.5527C28.4189 35.0449 28.5273 35.4873 28.7441 35.8799C28.9668 36.2725 29.2686 36.583 29.6494 36.8115C30.0303 37.0342 30.4609 37.1455 30.9414 37.1455Z" fill="white"/>
</svg>
